<svg width="62" height="31" viewBox="0 0 62 31" fill="none" xmlns="http://www.w3.org/2000/svg">
<path d="M42.7832 3.44376H16.0254V23.4704H42.7832V3.44376Z" fill="#AECDFB"/>
<path d="M45.5398 26.9149H30.7356C30.3554 26.9149 30.0467 26.6069 30.0467 26.226C30.0467 25.845 30.3554 25.5371 30.7356 25.5371H44.851V1.37778H13.9598V3.8006C13.9598 4.18087 13.6512 4.48949 13.2709 4.48949C12.8907 4.48949 12.582 4.18087 12.582 3.8006V0.688889C12.582 0.308622 12.8907 0 13.2709 0H45.5398C45.9208 0 46.2287 0.308622 46.2287 0.688889V26.226C46.2287 26.6063 45.9208 26.9149 45.5398 26.9149Z" fill="#0C0C0C"/>
<path d="M19.0714 26.9149H13.2709C12.8907 26.9149 12.582 26.607 12.582 26.226V22.7561C12.582 22.3751 12.8907 22.0672 13.2709 22.0672C13.6512 22.0672 13.9598 22.3751 13.9598 22.7561V25.5371H19.0714C19.4516 25.5371 19.7603 25.845 19.7603 26.226C19.7603 26.607 19.4516 26.9149 19.0714 26.9149Z" fill="#0C0C0C"/>
<path d="M61.3106 26.9149C60.9317 26.9149 60.6245 26.6097 60.6217 26.2308L60.5563 16.492L53.4938 9.07887H46.2274V25.5371H50.1437C50.5247 25.5371 50.8326 25.845 50.8326 26.226C50.8326 26.607 50.5247 26.9149 50.1437 26.9149H45.5385C45.1575 26.9149 44.8496 26.607 44.8496 26.226V8.38998C44.8496 8.00972 45.1575 7.7011 45.5385 7.7011H53.7893C53.9774 7.7011 54.1579 7.77825 54.2881 7.91465L61.7418 15.739C61.8631 15.8665 61.9306 16.0346 61.932 16.2096L61.9995 26.2212C62.0022 26.6021 61.6957 26.9121 61.3154 26.9149C61.314 26.9149 61.312 26.9149 61.3106 26.9149Z" fill="#0C0C0C"/>
<path d="M55.7254 16.9026H49.894C49.513 16.9026 49.2051 16.5946 49.2051 16.2137V8.38998C49.2051 8.00972 49.513 7.7011 49.894 7.7011C50.2749 7.7011 50.5829 8.00972 50.5829 8.38998V15.5255H55.7254C56.1064 15.5255 56.4143 15.8341 56.4143 16.2144C56.4143 16.5946 56.1057 16.9026 55.7254 16.9026Z" fill="#0C0C0C"/>
<path d="M22.7153 30.5598C20.3256 30.5598 18.3809 28.6158 18.3809 26.226C18.3809 23.8362 20.3249 21.8922 22.7153 21.8922C25.1051 21.8922 27.0491 23.8362 27.0491 26.226C27.0491 28.6158 25.1044 30.5598 22.7153 30.5598ZM22.7153 23.27C21.0854 23.27 19.7586 24.5961 19.7586 26.226C19.7586 27.8559 21.0847 29.182 22.7153 29.182C24.3459 29.182 25.6714 27.8559 25.6714 26.226C25.6714 24.5961 24.3453 23.27 22.7153 23.27Z" fill="#0C0C0C"/>
<path d="M53.7896 30.5598C51.3991 30.5598 49.4551 28.6158 49.4551 26.226C49.4551 23.8362 51.3991 21.8922 53.7896 21.8922C56.1793 21.8922 58.1234 23.8362 58.1234 26.226C58.1234 28.6158 56.1793 30.5598 53.7896 30.5598ZM53.7896 23.27C52.1597 23.27 50.8329 24.5961 50.8329 26.226C50.8329 27.8559 52.1597 29.182 53.7896 29.182C55.4195 29.182 56.7456 27.8559 56.7456 26.226C56.7456 24.5961 55.4195 23.27 53.7896 23.27Z" fill="#0C0C0C"/>
<path d="M29.4045 14.1456H0.688889C0.308622 14.1456 0 13.837 0 13.4568C0 13.0765 0.308622 12.7679 0.688889 12.7679H29.4045C29.7848 12.7679 30.0934 13.0765 30.0934 13.4568C30.0934 13.837 29.7848 14.1456 29.4045 14.1456Z" fill="#0C0C0C"/>
<path d="M29.405 8.31351H7.9799C7.59964 8.31351 7.29102 8.00489 7.29102 7.62462C7.29102 7.24435 7.59964 6.93573 7.9799 6.93573H29.4057C29.786 6.93573 30.0946 7.24435 30.0946 7.62462C30.0946 8.00489 29.7853 8.31351 29.405 8.31351Z" fill="#0C0C0C"/>
<path d="M29.405 19.9778H7.9799C7.59964 19.9778 7.29102 19.6699 7.29102 19.2889C7.29102 18.9079 7.59964 18.6 7.9799 18.6H29.4057C29.786 18.6 30.0946 18.9079 30.0946 19.2889C30.0946 19.6699 29.7853 19.9778 29.405 19.9778Z" fill="#0C0C0C"/>
</svg>
