<svg width="41" height="44" viewBox="0 0 41 44" fill="none" xmlns="http://www.w3.org/2000/svg">
<path d="M20.4997 29.2147C24.6006 29.2147 27.9251 25.8902 27.9251 21.7892C27.9251 17.6882 24.6006 14.3638 20.4997 14.3638C16.3987 14.3638 13.0742 17.6882 13.0742 21.7892C13.0742 25.8902 16.3987 29.2147 20.4997 29.2147Z" fill="#AECDFB"/>
<path d="M20.4997 43.7704C20.4438 43.7704 20.3874 43.7606 20.332 43.7402C8.2712 39.3101 1.59957 28.0776 0.50093 10.3549C0.48634 10.118 0.644887 9.90499 0.875899 9.85101C6.38954 8.56902 11.2714 6.55751 15.3849 3.87194C15.6101 3.72506 15.9111 3.78829 16.058 4.01346C16.2049 4.23864 16.1416 4.54017 15.9165 4.68656C11.8079 7.36873 6.95856 9.39239 1.49793 10.7036C2.65736 28.0056 8.93019 38.5164 20.667 42.8278C20.9195 42.9202 21.0483 43.1999 20.9559 43.4518C20.884 43.6483 20.6977 43.7704 20.4997 43.7704Z" fill="#0C0C0C"/>
<path d="M20.5 43.7703C20.4018 43.7703 20.3045 43.7402 20.2218 43.6828C20.0915 43.5919 20.0137 43.443 20.0137 43.284V31.5272C20.0137 31.2583 20.2316 31.0409 20.5 31.0409C20.7685 31.0409 20.9864 31.2583 20.9864 31.5272V42.5788C32.302 38.12 38.3638 27.6807 39.5013 10.7036C32.0739 8.92063 25.8532 5.85571 20.9864 1.5832V8.24947C20.9864 8.51793 20.7685 8.73582 20.5 8.73582C20.2316 8.73582 20.0137 8.51793 20.0137 8.24947V0.486018C20.0137 0.292455 20.1284 0.116886 20.3064 0.0400437C20.4845 -0.0367982 20.6911 -0.00129529 20.8322 0.131476C25.771 4.75317 32.2612 8.02381 40.1239 9.85148C40.3554 9.90547 40.5139 10.1185 40.4988 10.3553C39.4002 28.0776 32.7286 39.3106 20.6678 43.7402C20.6133 43.7601 20.5564 43.7703 20.5 43.7703Z" fill="#0C0C0C"/>
<path d="M20.4996 32.0135C18.1223 32.0135 15.8112 31.1741 13.9909 29.6509C13.7851 29.4787 13.7579 29.1719 13.9301 28.9661C14.1022 28.7599 14.4086 28.7322 14.6153 28.9053C16.2606 30.2827 18.3504 31.0414 20.4996 31.0414C25.5565 31.0414 29.6705 26.9274 29.6705 21.8704C29.6705 16.8135 25.5565 12.6985 20.4996 12.6985C15.4426 12.6985 11.3282 16.8125 11.3282 21.8699C11.3282 22.1384 11.1103 22.3563 10.8418 22.3563C10.5733 22.3563 10.3555 22.1384 10.3555 21.8699C10.3555 16.2765 14.9062 11.7258 20.4996 11.7258C26.093 11.7258 30.6432 16.2765 30.6432 21.8699C30.6432 27.4633 26.093 32.0135 20.4996 32.0135Z" fill="#0C0C0C"/>
<path d="M19.8768 25.6152C19.7372 25.6152 19.604 25.5548 19.5121 25.4503L16.3499 21.8567C16.1724 21.6549 16.1918 21.348 16.3936 21.1705C16.5955 20.9925 16.9028 21.0129 17.0799 21.2143L19.8744 24.3891L25.2056 18.2286C25.3807 18.0253 25.6886 18.0039 25.8914 18.179C26.0947 18.3551 26.1166 18.6619 25.941 18.8652L20.2445 25.4469C20.1526 25.5534 20.0193 25.6147 19.8788 25.6152C19.8783 25.6152 19.8773 25.6152 19.8768 25.6152Z" fill="#0C0C0C"/>
</svg>
